<?xml version="1.0" encoding="utf-8"?>
<!-- Generator: Adobe Illustrator 19.0.0, SVG Export Plug-In . SVG Version: 6.00 Build 0)  -->
<svg version="1.1" xmlns="http://www.w3.org/2000/svg" xmlns:xlink="http://www.w3.org/1999/xlink" x="0px" y="0px"
	 viewBox="0 0 500 500" enable-background="new 0 0 500 500" xml:space="preserve">
<g id="BACKGROUND">
	<rect fill="#FCFCFC" width="500" height="500"/>
</g>
<g id="OBJECTS">
	<g>
		<path fill="#FFF8F8" d="M430.3,421.6c53.2-54.4,30.2-138.9-73-158.2S231.9,128.7,138.1,152.8C44.3,176.9,8.7,354.1,105,421.6
			H430.3z"/>
		<rect x="423.7" y="243.3" fill="#3B364D" width="6.6" height="164.3"/>
		<ellipse fill="#FFE5E2" cx="136.1" cy="421.6" rx="46.6" ry="4.3"/>
		<ellipse fill="#FFE5E2" cx="309" cy="426.2" rx="90.6" ry="8.9"/>
		<g>
			<path fill="#AAB2C8" d="M187.9,254.3H61.5c-5.9,0-10.8-4.8-10.8-10.8V133.9c0-5.9,4.8-10.8,10.8-10.8h126.4
				c5.9,0,10.8,4.8,10.8,10.8v109.6C198.7,249.4,193.8,254.3,187.9,254.3z"/>
			<rect x="60.8" y="134" fill="#E0E7FF" width="127.9" height="109.4"/>
			<line fill="none" stroke="#AAB2C8" stroke-miterlimit="10" x1="124.7" y1="134" x2="124.7" y2="243.4"/>
			<line fill="none" stroke="#AAB2C8" stroke-miterlimit="10" x1="188.6" y1="188.7" x2="60.8" y2="188.7"/>
			<polygon opacity="0.54" fill="#FFFFFF" points="116.7,134 73.8,243.3 92.8,243.3 136.1,134 			"/>
			<polygon opacity="0.54" fill="#FFFFFF" points="149.9,134 107,243.3 125.9,243.3 169.3,134 			"/>
		</g>
		<rect x="328.8" y="237.5" fill="#773C4D" width="125.9" height="11.7"/>
		<rect x="374.4" y="237.5" fill="#965363" width="80.3" height="11.7"/>
		<g>
			<path fill="#61648A" d="M420.3,237.5h-64.2c-2.2,0-4-1.8-4-4v-10.8c0-2.2,1.8-4,4-4h64.2V237.5z"/>
			<rect x="357" y="222.6" fill="#EDF1FC" width="64.4" height="10.9"/>
			<rect x="356.8" y="222.6" fill="#E0E7FF" width="46" height="10.9"/>
			<path fill="#FFC55A" d="M409.8,218.6h-64.2c-2.2,0-4-1.8-4-4v-10.8c0-2.2,1.8-4,4-4h64.2V218.6z"/>
			<rect x="346.3" y="203.7" fill="#EDF1FC" width="64.4" height="10.9"/>
			<rect x="346.3" y="203.7" fill="#E0E7FF" width="46.3" height="10.9"/>
			<path fill="#AF2F48" d="M424.3,199.8h-64.2c-2.2,0-4-1.8-4-4v-10.8c0-2.2,1.8-4,4-4h64.2V199.8z"/>
			<rect x="361.1" y="184.9" fill="#EDF1FC" width="64.4" height="10.9"/>
			<rect x="360.8" y="184.9" fill="#E0E7FF" width="43.4" height="10.9"/>
		</g>
		<g>
			<path fill="#FFC55A" d="M352.8,334.6c0.1,14-1.2,27.4-4.9,39.4c0,0,0,0,0,0c-10.2,33.7-38.4,56.9-104.5,54.8
				c-89.7-2.9-106-86.3-113.5-164.3c-6.1-63.3,12.9-109.8,70-125.1c13.3-3.6,28.6-5.4,46.2-5.4C326.8,134,352.5,281.3,352.8,334.6z"
				/>
			<path fill="#F49947" d="M347.9,374.1c-10.2,33.7-38.4,56.9-104.5,54.8c-89.7-2.9-106-86.3-113.5-164.3
				c-6.1-63.3,12.9-109.8,70-125.1c-49,29.9-61.2,84.3-41.2,167.2c20,82.8,70.6,106.9,103.3,107
				C294.8,413.6,335.9,402.9,347.9,374.1z"/>
			<path fill="#F49947" d="M223.4,212.2c-64,11.4-36.1,102.8-21.9,128.3c14.1,25.6,20.2,55.9,52.8,57.2
				c32.7,1.3,74.4-13.5,78.5-24.2c4-10.8-14.4-66.9-14.4-66.9s-2.6-56.8-20.3-71.7C280.3,219.9,244.6,208.4,223.4,212.2z"/>
			<path fill="#F27C49" d="M309,366.3c-11.7,21.8-51.5,29.5-65.2,26.1c-8-2-17.7-9.3-26.4-19.8c-5.6-9.9-10.1-21.3-16-32
				c-2.2-4-4.8-9.6-7.2-16.3c-4.9-23.5-4.7-51.3,4.4-60.8c12.4-12.9,24.5-21.9,25.4-29.9c0.7-6.3-6.4-14.5-5-20.4
				c1.4-0.4,2.8-0.7,4.3-0.9c17.5-3.1,44.8,4.1,63.8,15.1c1.8,6.9,2,16.2,6.3,19.2c6.6,4.6,16.8,33.5,19.4,47
				C315.5,307.1,309,366.3,309,366.3z"/>
		</g>
		<g>
			<path fill="#AF2F48" d="M395.9,400.9c0.5,8.2,24.3-2.3,27.4-6.8c0,0-13,37.4-19.8,37.4c-6.8,0-25.3-19.5-25.3-19.5l2.2-11.1
				H395.9z"/>
			<path fill="#D35473" d="M403.5,431.5c-7.4,3.2,11.1-43.4,19.8-42.3C432.1,390.2,413.1,427.4,403.5,431.5z"/>
			<path fill="#31344C" d="M398.7,347c-0.5,24.1-6.7,53.9-6.7,53.9h-15.4c0,0-9.5-20.3-13.9-40.7c-1.1-5.1-1.9-10.3-2.2-15.1
				c0,0-23.9,7.2-46.9,2.9c-9.6-1.8-20.5-4.8-29.9-7.8c-13.2-4.1-23.6-8.1-23.6-8.1l0.8-1l16.8-21.3L323,303l5.3-0.8l32.2,10
				C389.1,315.3,399.2,323,398.7,347z"/>
			<path opacity="0.54" fill="#232433" d="M362.7,360.2c-1.1-5.1-1.9-10.3-2.2-15.1c0,0-23.9,7.2-46.9,2.9
				c-9.6-1.8-20.5-4.8-29.9-7.8l-22.8-9.1l-2-0.8l-3.8-15.8l48.7-17L323,303l32.2,9.2c-7.8,14,7.9,30.6,11.3,35.5
				c3.4,5,13.2-3.1,19.4,0C392.2,350.8,367.6,349.3,362.7,360.2z"/>
			<path fill="#AF2F48" d="M371.8,414.4c7.1,15.4,17.6,22.7,23.2,20.3l-2.4-25.5l-10.1-4.4L371.8,414.4z"/>
			<path fill="#D35473" d="M395,434.7c-12.5,2.1-10.1-22-9.4-33.7c0.7-11.7,10.5-10.7,11.5-1.6C398.1,408.4,403.3,433.3,395,434.7z"
				/>
			<path fill="#383952" d="M382.4,404.7l-10.6,9.6c-43.3-12.5-68.8-52-68.8-52c-24.1,27.9-51,34.2-72.7,0c0,0,1.4-15.2,18.9-26.9
				c3.4-2.3,7.4-4.4,12.2-6.3c18.8-7.4,43.8-8.9,59.2-9c9.3-0.1,18,4.5,23.4,12.1c9.1,12.8,17.7,28.7,24.5,42.3
				C376.9,391.4,382.4,404.7,382.4,404.7z"/>
			<path opacity="0.54" fill="#232433" d="M382.4,404.7l-10.6,9.6c-43.3-12.5-68.8-52-68.8-52c-24.1,27.9-51,34.2-72.7,0
				c0,0,1.4-15.2,18.9-26.9l18.1-3.4c-21.2,41.6,29.7,31.9,38.9,24.3c9.2-7.6,17.9-15.2,22-15.6c4.1-0.4-17.5,15.6-2.3,33.8
				c15.3,18.2,50.5,29.6,42.5,0C376.9,391.4,382.4,404.7,382.4,404.7z"/>
			<path fill="#6D3744" d="M276.8,197.6h-0.6c0,0-6.4,24.6-17.4,33.7c-2,1.6-4.1,2.8-6.3,3.2c-14.8,2.7-27.6-14.1-30-25.6
				c-1.4-6.4,1-10.4,3.4-12.6c1.9-1.8,3.7-2.5,3.7-2.5s1-18.2,7.3-17.9c6.1,0.3,5.1,2.7,5,2.9c0.4-0.5,13.6-18.1,22.8-16.2
				c9.3,2,2.8,15.6,2.8,15.6s11.7-11.8,15.6-5c3.9,6.8-7.6,15.1-7.6,15.1s9.9-0.2,10.9,3.4C287.2,195.3,285.8,198.7,276.8,197.6z"/>
			<path fill="#542633" d="M258.8,231.3c-2,1.6-4.1,2.8-6.3,3.2c-14.8,2.7-27.6-14.1-30-25.6c-1.4-6.4,1-10.4,3.4-12.6
				c2.2,2.8,5.1,8.6,11.8,1.3h3.1L258.8,231.3z"/>
			<path fill="#61648A" d="M298,304.3l-67.4,62.5c-3.3-2.9-6.1-6-8.6-9.2h0c-4.6-5.9-7.9-12.2-10.2-18.8c-1.8-4.9-3-10-3.8-15.2
				c-1.8-11.8-1.6-24.2-0.8-36.5c1.8-28.8,10.4-48,45-48.5c0,0,15.8-4.4,27.6,1.9c9.2,5,15.2,41.6,17.4,57.1
				C297.7,301.7,298,304.3,298,304.3z"/>
			<path opacity="0.36" fill="#383952" d="M283.7,275.9c-35.5,13.3-50.2-12.5-50.2-12.5l-11.5,41.2l24.5,7.6l42.7-4.4L283.7,275.9z"
				/>
			<path opacity="0.36" fill="#383952" d="M298,304.3l-67.4,62.5c-3.3-2.9-6.1-6-8.6-9.2c11.7-0.9,36.9-28.9,30.3-30.4
				c-5.9-1.3-26.3,12.6-40.5,11.6c-1.8-4.9-3-10-3.8-15.2l21.6-18.9l67.4-7.1C297.7,301.7,298,304.3,298,304.3z"/>
			<path fill="#F4B8AB" d="M260.1,296c7.9-5.3,17.1-0.9,20.4,1.5c3.3,2.4,0,8.6,0,8.6s-3.6-2.1-4.8-2.4c-1.2-0.3-6.9,4.2-18.3,2.4
				C246,304.4,260.1,296,260.1,296z"/>
			<path fill="#61648A" d="M213.8,258.7c15.5-11.6,24.3-1.4,23.6,18.6c-0.8,20-0.8,20-0.8,20s19.8-6.3,24.6-6.3c0,0,0.4,13.7,0,18.6
				c0,0-23.9,23.2-39.7,24.9c-15.8,1.8-12.6-29.5-14-43.9C206.1,276.3,208.4,262.7,213.8,258.7z"/>
			<g>
				<path fill="#C3C9F4" d="M277.7,307.1l11.8-47.7c1.2-4.9,5.6-8.3,10.6-8.3h67.6c4.4,0,7.7,4.2,6.6,8.5l-13.6,49.9L277.7,307.1z"
					/>
				<path fill="#E0E7FF" d="M282.5,307.1l11.8-47.7c1.2-4.9,5.6-8.3,10.6-8.3h67.6c4.4,0,7.7,4.2,6.6,8.5l-13.6,49.9L282.5,307.1z"
					/>
				<path fill="#C3C9F4" d="M345.8,311.8h-85.9c-1.3,0-2.4-1.1-2.4-2.4l0,0c0-1.3,1.1-2.4,2.4-2.4h85.9c1.3,0,2.4,1.1,2.4,2.4l0,0
					C348.2,310.8,347.1,311.8,345.8,311.8z"/>
				<path fill="#E0E7FF" d="M366,311.8h-85.9c-1.3,0-2.4-1.1-2.4-2.4l0,0c0-1.3,1.1-2.4,2.4-2.4H366c1.3,0,2.4,1.1,2.4,2.4l0,0
					C368.4,310.8,367.4,311.8,366,311.8z"/>
				
					<ellipse transform="matrix(0.9837 0.1797 -0.1797 0.9837 55.6353 -55.3143)" fill="#C3C9F4" cx="333.1" cy="279.4" rx="4.3" ry="11.4"/>
			</g>
			<path fill="#F4B8AB" d="M280.7,201.6c1.5,22-2,31.7-14.5,32.9v5.1c0,3.8-3.1,6.9-6.9,6.9l0,0c-3.8,0-6.9-3.1-6.9-6.9v-5.1
				c0,0-10-4.2-12-10.5c-2-6.2,0-1,0-1l-0.9-25.4H281L280.7,201.6z"/>
			<path fill="#F4B8AB" d="M241.2,213.5c-3.1-5.7-6.8-3.3-7.6,0c-0.7,3.3,5.9,11.4,7.6,8.6C242.8,219.2,241.2,213.5,241.2,213.5z"/>
			<path fill="#6D3744" d="M234.3,194.8c6.7,8.1,25.6,12.3,32.5,10.4c6.9-1.9-2.9-8.3-2.9-8.3s12.7,8.8,18.5,5.8
				c5.8-2.9-9.9-10.1-9.9-10.1L234.3,194.8z"/>
			<ellipse fill="none" stroke="#191918" stroke-width="2" stroke-miterlimit="10" cx="256.5" cy="212.2" rx="0.5" ry="2.1"/>
			<ellipse fill="none" stroke="#191918" stroke-width="2" stroke-miterlimit="10" cx="270" cy="212.2" rx="0.5" ry="2.1"/>
			<path fill="none" stroke="#E56A85" stroke-linecap="round" stroke-miterlimit="10" d="M265,224c-6.5,0.1-11.5-4.5-11.5-4.5"/>
			<path opacity="0.53" fill="#DD6595" d="M266.2,234.5c-5.5,0.5-11.9,0.3-11.9,0.3l11.9,4.8V234.5z"/>
			<path opacity="0.53" fill="#DD6595" d="M240.8,215c-2.8-2.9-4.2-1.7-4,1.3c0.2,3.1,3.9,5.2,5.1,4.4
				C243.1,219.8,240.8,215,240.8,215z"/>
		</g>
		<g>
			<g>
				<path fill="#7C9E1E" d="M131.4,367.9c-12.4-4.6-19.2-2.8-23-7.8c0,0,10.1-1.8,15.7,0L131.4,367.9z"/>
				<path fill="#B7AC15" d="M124.1,360.1c-15.1-7.9-19.5-16.8-23.4-23c-3.8-6.2-6-11.3-7.5-11.7c-1.5-0.4,6.2,1.1,13.4,8.3
					c7.2,7.2,10.2,8.3,16,14.1c5.7,5.7,10.9,14.2,11.5,20.2h-2.7L124.1,360.1z"/>
				<path fill="#7C9E1E" d="M128.4,357.9c-8.1-12.5-0.8-19.7-10.6-33.9c-11.5-16.6-7.9-33.2-6.2-43.7c0,0-2.6,12.1,7.5,24
					c10,11.8,19.8,16.4,20.7,34c0.9,17.6-2.6,29.5-2.6,29.5h-5.7L128.4,357.9z"/>
				<path fill="#B7AC15" d="M135.8,367.9c-2.7-11.7,2.6-31.7,3-51.5c0.4-19.8-10.6-34.5,5.7-53c0,0-3.4,3.4,1.3,17
					c4.7,13.6,15.1,27.9,10,46.2c-5.1,18.3-16.1,33.3-16,41.3H135.8z"/>
				<path fill="#A88F14" d="M139.8,367.9c-1.7-14.1,12.6-36,24.8-40.9c0,0,1.3,10.8-6.6,19.5c-7.9,8.8-13.7,21.3-13.7,21.3H139.8z"
					/>
				<path fill="#426313" d="M144.2,367.9c0.5-9.3,8.6-12.6,16.9-15c0,0-10,10.1-11.7,15H144.2z"/>
				<path opacity="0.36" fill="#426313" d="M148.1,369c1.4-7.1,4.6-9.3,4-9.7c-0.6-0.4-4.2,5.6-6,8.6c0,0-2.4-8.1,1.2-15
					c3.6-7,7.1-12.2,7.1-12.2s-11.7,13.5-12.3,20.4c0,0-1.2-6.9,0.8-15.8c2-8.9,7.3-17.4,5.4-27.9c-1.9-10.5-4-21.7-4-21.7
					s0.9,10.7,1.9,19.9c1,9.3-1.7,14.1-4.4,24c-2.7,9.9-1.2,24-2.3,23.9c-1.2-0.1-3,2.6-3,2.6s-1.2-15.2-3-28.1
					c-1.8-12.9-1.6-14.7-9.5-22.4c-7.9-7.7-8.9-12.4-8.9-12.4s5.3,10.6,9.7,17.5c4.4,6.9,5.8,9.9,5.8,22s0.6,18.9,1.6,20.9
					c1,1.9-7.5-11.5-14.2-16.1c-6.7-4.6-12.1-10.8-12.7-11.9c-0.6-1,6.5,11.7,11.7,15.2c5.3,3.4,14.4,15.2,14.4,15.2l-15-4l17,7.1
					H148.1z"/>
			</g>
			<path fill="#3A3852" d="M161.5,371.7l-8,46c-0.1,0.6-0.3,1.1-0.6,1.5c-0.8,1.4-2.3,2.3-4,2.3h-28.8c-2.3,0-4.2-1.7-4.6-3.9
				l-7.5-46c-0.5-2.8,1.7-5.4,4.6-5.4h44.2C159.8,366.3,162,368.9,161.5,371.7z"/>
			<path opacity="0.54" fill="#232433" d="M153,419.3c-0.8,1.4-2.3,2.3-4,2.3h-28.8c-2.3,0-4.2-1.7-4.6-3.9l-7.5-46
				c-0.5-2.8,1.7-5.4,4.6-5.4h15.2C113.8,388.2,137.3,413.6,153,419.3z"/>
		</g>
		<path fill="#FFC55A" d="M201.5,340.5c5.9,10.7,10.4,22.2,16,32c-6.1-7.3-11.8-16.2-16.3-25.9c-2.8-6.2-5.2-14-7-22.4
			C196.7,330.9,199.2,336.5,201.5,340.5z"/>
	</g>
</g>
</svg>
